<svg width="225" height="101" viewBox="0 0 225 101" fill="none" xmlns="http://www.w3.org/2000/svg">
<g clip-path="url(#clip0_4520_2039)">
<path d="M135.169 101C135.801 101 136.223 101 136.645 101C137.067 101 137.277 100.578 137.277 100.155C137.277 99.7323 136.856 99.521 136.434 99.521C136.012 99.521 135.38 99.521 134.958 99.521C132.849 99.521 130.53 99.3097 128.421 99.0984C127.999 99.0984 127.577 99.3097 127.577 99.7323C127.577 100.155 127.788 100.577 128.21 100.577C130.74 100.789 133.06 101 135.169 101ZM143.814 100.155C146.556 99.7323 149.297 98.8871 151.828 97.8306C152.249 97.6193 152.46 97.1968 152.249 96.9855C152.038 96.5629 151.617 96.3516 151.406 96.5629C148.875 97.4081 146.345 98.2532 143.604 98.6758C143.182 98.6758 142.971 99.0984 142.971 99.521C143.182 99.9436 143.604 100.155 143.814 100.155ZM121.673 99.0984C121.884 99.0984 122.306 98.8871 122.306 98.6758C122.516 98.2532 122.306 97.8306 121.884 97.8306C119.353 96.9855 116.823 96.1403 114.503 94.8725C114.082 94.6612 113.66 94.8725 113.449 95.2951C113.238 95.7177 113.449 96.1403 113.871 96.3516C116.19 97.1967 118.721 98.2532 121.673 99.0984C121.462 99.0984 121.462 99.0984 121.673 99.0984ZM158.154 95.0838C158.365 95.0838 158.365 95.0838 158.575 95.0838C160.895 93.816 163.215 92.3369 165.534 90.4352C165.745 90.2239 165.956 89.8013 165.745 89.3788C165.534 89.1675 165.112 88.9562 164.691 89.1675C162.582 90.8578 160.262 92.3369 157.943 93.6047C157.521 93.816 157.521 94.2386 157.732 94.6612C157.732 94.8725 157.943 95.0838 158.154 95.0838ZM107.755 92.3369C107.966 92.3369 108.177 92.1256 108.388 92.1256C108.599 91.703 108.599 91.2804 108.177 91.0691C106.068 89.59 103.96 87.8997 102.062 85.998C101.851 85.7867 101.218 85.7867 101.007 85.998C100.797 86.2093 100.797 86.6319 101.007 87.0545C102.905 88.9562 105.014 90.6465 107.334 92.3369C107.545 92.3369 107.755 92.3369 107.755 92.3369ZM170.173 85.7867C170.384 85.7867 170.595 85.7867 170.595 85.5754C171.017 85.1528 171.439 84.5189 171.86 84.0963C173.126 82.6172 174.391 80.9269 175.656 79.0252C175.867 78.6026 175.867 78.18 175.445 77.9687C175.023 77.7574 174.602 77.7574 174.391 78.18C173.126 79.8704 171.86 81.5608 170.595 83.0398C170.173 83.4624 169.752 83.885 169.33 84.5189C169.119 84.7302 169.119 85.3641 169.33 85.5754C169.963 85.5754 170.173 85.7867 170.173 85.7867ZM179.03 73.3202C179.241 73.3202 179.452 73.1089 179.663 72.8976C181.139 70.362 182.404 67.8265 183.458 65.7135C183.669 65.2909 183.458 64.8683 183.037 64.657C182.615 64.4457 182.193 64.657 181.982 65.0796C180.928 67.1926 179.663 69.7281 178.186 72.2637C177.976 72.6863 178.186 73.1089 178.397 73.3202C178.819 73.1089 178.819 73.3202 179.03 73.3202ZM185.989 59.5859C186.2 59.5859 186.41 59.3746 186.621 59.1633C188.097 56.2051 189.363 54.0921 190.417 51.9792C190.628 51.5566 190.417 51.134 190.206 50.9227C189.784 50.7114 189.363 50.9227 189.152 51.134C187.887 53.247 186.832 55.5712 185.356 58.3181C185.145 58.7407 185.356 59.1633 185.778 59.3746C185.778 59.5859 185.778 59.5859 185.989 59.5859ZM193.791 46.2741C194.002 46.2741 194.213 46.2741 194.424 46.0628C195.9 43.9499 197.798 41.8369 199.485 39.9352C199.695 39.7239 199.695 39.09 199.485 38.8787C199.274 38.6675 198.641 38.6675 198.43 38.8787C196.532 40.7804 194.845 43.1047 193.158 45.2177C192.948 45.6403 192.948 46.0628 193.369 46.2741C193.369 46.2741 193.58 46.2741 193.791 46.2741ZM204.124 35.0754C204.335 35.0754 204.545 35.0754 204.545 34.8641C206.654 33.1737 208.763 31.4834 210.872 30.0043C211.293 29.793 211.293 29.3704 211.082 28.9478C210.872 28.5252 210.45 28.5252 210.028 28.7365C207.709 30.2156 205.6 31.9059 203.491 33.5963C203.28 33.8076 203.069 34.2302 203.491 34.6528C203.702 35.0754 203.913 35.0754 204.124 35.0754ZM216.776 26.6235C216.987 26.6235 216.987 26.6235 217.198 26.6235C219.517 25.3557 222.048 24.2993 224.578 23.4541C225 23.2428 225 22.8202 225 22.3976C224.789 21.975 224.367 21.7637 224.157 21.975C221.626 22.8202 219.096 24.088 216.565 25.1444C216.143 25.3557 216.143 25.7783 216.354 26.2009C216.354 26.4122 216.565 26.6235 216.776 26.6235Z" fill="#1B1C1E"/>
<path d="M125.047 33.1736L1.26524 1.479L47.2352 96.1401L70.0094 66.3472L85.1921 75.8556L87.9335 48.5983L125.047 33.1736Z" fill="#FF9A66"/>
<path d="M79.0765 63.6005C79.2873 63.6005 79.2873 63.6005 79.2873 63.3892L80.7634 44.795C80.7634 44.5837 80.7634 44.5837 80.5526 44.5837C80.3417 44.5837 80.3417 44.5837 80.3417 44.795L78.8656 63.3892L79.0765 63.6005Z" fill="#1B1C1E"/>
<path d="M73.3833 57.2613C73.5941 57.2613 73.5941 57.2613 73.5941 57.05C73.805 51.9789 74.2268 46.6965 74.8594 41.6254C74.8594 41.4141 74.8594 41.4141 74.6485 41.4141C74.4376 41.4141 74.4376 41.4141 74.4376 41.6254C73.805 46.6965 73.3833 51.9789 73.1724 57.05C72.9615 57.2613 73.1724 57.2613 73.3833 57.2613Z" fill="#1B1C1E"/>
<path d="M67.479 53.2467C67.479 53.2467 67.6899 53.2467 67.6899 53.0354C67.6899 53.0354 67.6899 53.0354 67.6899 52.8241C68.3225 48.1756 68.7442 43.3158 68.9551 38.4559C68.9551 38.2446 68.9551 38.2446 68.7442 38.2446C68.5333 38.2446 68.5333 38.2446 68.5333 38.4559C68.3225 43.1045 67.9007 47.9643 67.2681 52.6128C67.0572 53.0354 67.0572 53.0354 67.479 53.2467C67.2681 53.2467 67.2681 53.2467 67.479 53.2467Z" fill="#1B1C1E"/>
<path d="M61.7847 47.9646C61.9956 47.9646 61.9956 47.9646 61.9956 47.7533C62.6282 43.5273 63.0499 39.3014 63.4717 34.8641C63.4717 34.6528 63.4717 34.6528 63.2608 34.6528C63.0499 34.6528 63.0499 34.6528 63.0499 34.8641C62.8391 39.0901 62.4173 43.5273 61.5738 47.542C61.5738 47.9645 61.5738 47.9646 61.7847 47.9646Z" fill="#1B1C1E"/>
<path d="M56.0911 43.3158C56.302 43.3158 56.3019 43.3158 56.3019 43.1045C56.7237 39.5125 56.9346 35.7091 56.9346 32.1171C56.9346 31.9058 56.9346 31.9058 56.7237 31.9058C56.5128 31.9058 56.5128 31.9058 56.5128 32.1171C56.3019 35.7091 56.0911 39.5125 55.8802 43.1045C55.6693 43.1045 55.8802 43.3158 56.0911 43.3158Z" fill="#1B1C1E"/>
<path d="M49.1327 39.3014C49.3436 39.3014 49.3436 39.3014 49.3436 39.0901L49.5544 27.2574C49.5544 27.0461 49.5544 27.0461 49.3436 27.0461C49.1327 27.0461 49.1327 27.0461 49.1327 27.2574L48.9218 39.0901C48.9218 39.3014 49.1327 39.3014 49.1327 39.3014Z" fill="#1B1C1E"/>
<path d="M43.8614 34.6525C44.0723 34.6525 44.0723 34.4412 44.0723 34.4412V25.5668C44.0723 25.3555 43.8614 25.3555 43.8614 25.3555C43.6505 25.3555 43.6505 25.5668 43.6505 25.5668V34.4412C43.6505 34.6525 43.6505 34.6525 43.8614 34.6525Z" fill="#1B1C1E"/>
<path d="M37.9561 31.0605C38.167 31.0605 38.167 30.8492 38.167 30.8492V21.5521C38.167 21.3408 37.9561 21.3408 37.9561 21.3408C37.7453 21.3408 37.7452 21.5521 37.7452 21.5521V30.8492C37.7452 30.8492 37.7453 31.0605 37.9561 31.0605Z" fill="#1B1C1E"/>
<path d="M31.841 26.4121C32.0518 26.4121 32.0518 26.4121 32.0518 26.2008L32.2627 18.5941C32.2627 18.3828 32.2627 18.3828 32.0518 18.3828C31.841 18.3828 31.841 18.3828 31.841 18.5941L31.6301 26.2008C31.6301 26.4121 31.841 26.4121 31.841 26.4121Z" fill="#1B1C1E"/>
<path d="M26.3586 21.7637C26.5694 21.7637 26.5694 21.7637 26.5694 21.5524C26.7803 19.4394 26.7803 17.3265 26.5694 15.2135C26.5694 15.0022 26.3586 15.0022 26.3586 15.0022C26.1477 15.0022 26.1477 15.2135 26.1477 15.2135C26.1477 17.3265 26.1477 19.4394 26.1477 21.5524C26.1477 21.5524 26.1477 21.7637 26.3586 21.7637Z" fill="#1B1C1E"/>
<path d="M20.665 17.1149C20.8759 17.1149 20.8759 17.1149 20.8759 16.9036L21.0868 12.0438C21.0868 11.8325 21.0868 11.8325 20.8759 11.8325C20.665 11.8325 20.665 11.8325 20.665 12.0438L20.4542 16.9036C20.4542 17.1149 20.4542 17.1149 20.665 17.1149Z" fill="#1B1C1E"/>
<path d="M83.2936 70.1507C83.5044 70.1507 83.5044 70.1506 83.5044 69.9394C83.9262 62.544 84.3479 54.9373 85.1914 47.5419C85.1914 47.3306 85.1914 47.3306 84.9805 47.3306C84.7697 47.3306 84.7697 47.3306 84.7697 47.5419C83.9262 54.9373 83.2936 62.544 83.0827 69.9394C83.0827 70.1506 83.0827 70.1507 83.2936 70.1507Z" fill="#1B1C1E"/>
<path d="M47.4457 97.6192C47.6566 97.6192 47.8675 97.4079 48.0784 97.4079L75.7025 60.2197C75.9134 60.0084 75.9134 59.3745 75.4917 59.1632C75.0699 58.7406 33.95 26.2008 8.22362 5.70502C34.3717 20.2845 60.7307 34.6527 87.0896 48.387C87.3005 48.387 87.3005 48.387 87.5114 48.387C99.3202 46.4854 125.468 33.8075 126.523 33.3849C126.733 33.1736 126.944 32.9623 126.944 32.751C126.944 32.5397 126.733 32.1172 126.312 32.1172L0.843109 0C0.63224 0 0.21051 0 0.21051 0.211297C-0.000366211 0.422594 -0.000366211 0.633891 0.21051 1.05649L46.8131 97.1966C46.8131 97.4079 47.024 97.6192 47.4457 97.6192ZM74.0156 59.7971L47.4457 95.5063L2.53009 2.95816C26.1477 21.7636 68.7438 55.7824 74.0156 59.7971ZM123.992 32.9623C117.877 35.9205 97.4223 45.4289 87.5114 47.1192C60.3089 32.751 32.8956 17.749 5.90404 2.74686L123.992 32.9623Z" fill="#1B1C1E"/>
<path d="M86.457 76.9121C86.8787 76.9121 87.0896 76.4895 87.0896 76.2782L88.7766 49.2322C88.7766 48.8096 88.5657 48.5983 88.1439 48.387C87.7222 48.387 87.5113 48.5983 87.3004 49.0209L85.8243 73.9539L76.1243 59.3744C75.9134 58.9518 75.4916 58.9518 75.0699 59.1631C74.6482 59.3744 74.6482 59.797 74.859 60.2196L85.8243 76.4895C85.8243 76.7008 86.0352 76.9121 86.457 76.9121Z" fill="#1B1C1E"/>
<path d="M85.6135 76.9122C85.8244 76.9122 86.0353 76.7009 86.2461 76.4896C86.457 76.0671 86.457 75.6445 86.0353 75.4332L70.6416 65.7135C70.2199 65.5022 69.7982 65.5022 69.5873 65.9248C69.3764 66.3474 69.3764 66.77 69.7982 66.9813L85.1918 76.7009C85.1918 76.7009 85.4027 76.9122 85.6135 76.9122Z" fill="#1B1C1E"/>
</g>
<defs>
<clipPath id="clip0_4520_2039">
<rect width="225" height="101" fill="white" transform="matrix(-1 0 0 1 225 0)"/>
</clipPath>
</defs>
</svg>
